<svg width="55" height="38" viewBox="0 0 55 38" fill="none" xmlns="http://www.w3.org/2000/svg">
<path fill-rule="evenodd" clip-rule="evenodd" d="M18.1045 0.119307C16.0208 0.35881 13.3371 1.26528 11.4729 2.35909C8.58244 4.05494 5.84875 6.94123 4.40426 9.8221C3.59652 11.4331 2.28557 15.3213 1.5134 18.3963C0.65725 21.806 -0.00350668 26.0519 1.40035e-05 28.1207C0.00667815 32.0824 2.42514 34.9784 7.2281 36.7763C9.22597 37.5241 11.553 37.9991 13.2236 38C14.1701 38.0005 14.1953 37.9923 14.48 37.59C14.6396 37.3641 15.299 36.5333 15.9451 35.7437C16.5912 34.954 17.0726 34.2647 17.0148 34.2118C16.9571 34.159 16.5988 34.0151 16.2184 33.8923C14.0998 33.2084 11.5811 31.6634 10.0604 30.1151C9.54346 29.5887 9.16272 29.1581 9.2144 29.1581C9.26608 29.1581 9.74564 29.3782 10.28 29.6474C11.4683 30.2458 14.7646 31.5028 16.7214 32.1036C21.3003 33.5097 23.7895 33.9489 27.7333 34.0472C30.7819 34.1231 32.1781 34.0123 34.6391 33.4994C37.7131 32.8589 41.9257 31.177 44.7095 29.4792C45.2219 29.1667 45.6413 28.9592 45.6413 29.0184C45.6413 29.0776 45.2121 29.5355 44.6875 30.0361C43.089 31.5616 41.1158 32.7267 38.6075 33.6265L37.4408 34.045L38.7434 35.6595C39.4598 36.5476 40.1378 37.3897 40.2501 37.5311C40.442 37.7724 40.5453 37.7831 41.9476 37.7077C45.0644 37.5398 48.6489 36.3534 51.2995 34.6122C52.7825 33.638 53.9922 32.1028 54.6776 30.3255C54.9842 29.5307 55.0055 29.3391 54.9991 27.4527C54.9915 25.2555 54.6858 23.0507 53.9218 19.684C53.1991 16.499 51.9124 12.5366 50.8523 10.2316C49.3416 6.94679 46.1076 3.63442 42.757 1.94009C40.8878 0.994959 38.3698 0.292239 36.3316 0.146971C35.2627 0.0706735 35.1813 0.0826745 34.8876 0.359948C34.7163 0.521511 34.5763 0.698486 34.5763 0.753183C34.5763 0.807879 34.8168 0.91702 35.1107 0.995844C37.1386 1.53953 40.76 3.08 42.8506 4.28838C44.9417 5.49689 46.7764 6.87454 45.2812 6.11333C44.9308 5.93497 43.9608 5.50687 43.1256 5.16189C35.9683 2.20625 27.9532 1.28461 20.1815 2.52356C16.8882 3.04855 13.2192 4.11911 10.09 5.46809C8.296 6.24142 8.34366 6.12205 10.3716 4.76335C12.5578 3.29854 15.6808 1.9224 18.8871 1.01075L20.487 0.55587L20.2169 0.266976C19.9202 -0.0503408 19.7083 -0.0651211 18.1045 0.119307ZM20.4149 17.061C21.4308 17.4262 22.4968 18.4317 23.0375 19.5347C23.4226 20.3203 23.4484 20.4561 23.4484 21.7021C23.4484 22.9309 23.4187 23.0937 23.0561 23.8526C22.1089 25.8352 19.9441 27.0238 18.0037 26.6265C16.403 26.2987 15.141 25.2866 14.416 23.749C14.0556 22.9849 14.018 22.7913 14.018 21.6986C14.018 20.5577 14.0438 20.4396 14.4923 19.5278C15.032 18.4308 15.783 17.6748 16.8064 17.1982C18.0703 16.6095 19.0551 16.572 20.4149 17.061ZM37.6886 17.057C38.535 17.3715 39.4577 18.1059 39.9564 18.8621C40.5672 19.7886 40.7998 20.6097 40.7977 21.8315C40.7959 22.7703 40.746 23.0112 40.4001 23.749C39.6803 25.2843 38.4166 26.2984 36.8147 26.6265C34.8658 27.0255 32.6914 25.8329 31.7575 23.853C31.3975 23.0899 31.3699 22.9329 31.3706 21.642C31.3712 20.3273 31.3927 20.2112 31.7703 19.4843C32.9717 17.1719 35.3606 16.1922 37.6886 17.057Z" fill="url(#paint0_radial_3145_13127)"/>
<defs>
<radialGradient id="paint0_radial_3145_13127" cx="0" cy="0" r="1" gradientUnits="userSpaceOnUse" gradientTransform="translate(27.5 19) rotate(90) scale(35.5 51.3816)">
<stop stop-color="#794AFF"/>
<stop offset="1" stop-color="#794AFF" stop-opacity="0"/>
</radialGradient>
</defs>
</svg>
