<svg width="38" height="38" viewBox="0 0 38 38" fill="none" xmlns="http://www.w3.org/2000/svg">
<path fill-rule="evenodd" clip-rule="evenodd" d="M8.43064 0.108764C4.13229 0.835406 0.820701 4.17498 0.121492 8.48794C-0.0404973 9.48714 -0.0404973 28.494 0.121492 29.4932C0.825152 33.8337 4.16425 37.1744 8.50259 37.8784C9.5013 38.0405 28.4987 38.0405 29.4974 37.8784C30.5139 37.7136 31.4118 37.4305 32.3137 36.9908C35.2919 35.539 37.3474 32.7696 37.8785 29.4932C38.0405 28.494 38.0405 9.48714 37.8785 8.48794C37.177 4.16036 33.824 0.793256 29.5323 0.106686C28.9258 0.00969648 27.4486 -0.00499666 18.9258 0.0012368C10.9753 0.007025 8.90704 0.0282484 8.43064 0.108764ZM25.5032 6.75147C26.2693 6.85625 27.2867 7.19924 27.9747 7.58468C28.7397 8.01323 29.9719 9.24604 30.4002 10.0114C30.7855 10.6998 31.1283 11.7176 31.233 12.4842C31.3413 13.2765 31.3413 24.7046 31.233 25.497C31.1283 26.2635 30.7855 27.2814 30.4002 27.9697C29.9719 28.7351 28.7397 29.9679 27.9747 30.3964C27.2867 30.7819 26.2693 31.1249 25.5032 31.2297C24.7112 31.338 13.2888 31.338 12.4968 31.2297C11.7307 31.1249 10.7133 30.7819 10.0253 30.3964C9.26032 29.9679 8.02811 28.7351 7.59978 27.9697C7.21453 27.2814 6.87172 26.2635 6.76699 25.497C6.6587 24.7046 6.6587 13.2765 6.76699 12.4842C6.87172 11.7176 7.21453 10.6998 7.59978 10.0114C8.02811 9.24604 9.26032 8.01323 10.0253 7.58468C10.68 7.21787 11.7209 6.85588 12.3988 6.75919C13.0982 6.65938 24.78 6.65248 25.5032 6.75147ZM12.3084 9.01355C10.7489 9.39186 9.39442 10.7594 9.02445 12.3297C8.86135 13.0215 8.86135 24.9596 9.02445 25.6515C9.40591 27.2703 10.8287 28.6579 12.458 29.0002C12.7288 29.0571 14.7722 29.0825 19.0222 29.0817C25.7889 29.0805 25.6708 29.0875 26.5842 28.6341C27.7574 28.0517 28.6815 26.8991 28.9755 25.6515C29.1386 24.9596 29.1386 13.0215 28.9755 12.3297C28.6005 10.7378 27.2502 9.3857 25.6614 9.01095C24.9914 8.85289 12.961 8.85526 12.3084 9.01355ZM25.7262 11.5745C26.2225 11.7621 26.5498 12.3105 26.4579 12.8007C26.3954 13.1339 26.0337 13.5415 25.7039 13.6504C24.9653 13.8943 24.1554 13.1854 24.2988 12.4205C24.385 11.9609 24.9056 11.5066 25.3553 11.4985C25.4445 11.4969 25.6114 11.5311 25.7262 11.5745ZM20.4814 13.6501C21.4442 13.9205 22.1432 14.3376 22.8969 15.0917C24.0244 16.2197 24.5164 17.4041 24.5164 18.9906C24.5164 20.577 24.0244 21.7614 22.8969 22.8894C21.7695 24.0175 20.5856 24.5097 19 24.5097C17.4149 24.5097 16.2382 24.0192 15.106 22.8865C13.974 21.7538 13.4808 20.5716 13.4808 18.9906C13.4808 17.409 13.9757 16.2196 15.1031 15.0917C16.0007 14.1936 16.8904 13.7309 18.1716 13.4958C18.7021 13.3985 19.8612 13.4759 20.4814 13.6501ZM18.0208 15.7945C17.7881 15.8689 17.4539 16.0142 17.278 16.1173C16.8814 16.3499 16.2472 17.0123 16.0496 17.4005C15.5392 18.403 15.5392 19.5781 16.0496 20.5806C16.247 20.9685 16.8812 21.6312 17.2772 21.8633C18.3195 22.4745 19.6805 22.4745 20.7228 21.8633C21.1188 21.6312 21.753 20.9685 21.9504 20.5806C22.4608 19.5781 22.4608 18.403 21.9504 17.4005C21.753 17.0126 21.1188 16.35 20.7228 16.1178C19.9369 15.657 18.8552 15.5276 18.0208 15.7945Z" fill="url(#paint0_radial_3145_13148)"/>
<defs>
<radialGradient id="paint0_radial_3145_13148" cx="0" cy="0" r="1" gradientUnits="userSpaceOnUse" gradientTransform="translate(19 19) rotate(90) scale(35.5)">
<stop stop-color="#FF4A8B"/>
<stop offset="1" stop-color="#FF4A8B" stop-opacity="0"/>
</radialGradient>
</defs>
</svg>
