<svg width="46" height="38" viewBox="0 0 46 38" fill="none" xmlns="http://www.w3.org/2000/svg">
<path fill-rule="evenodd" clip-rule="evenodd" d="M30.2202 0.143567C28.3333 0.489677 26.5974 1.40953 25.2255 2.79013C23.196 4.83271 22.2078 7.59108 22.4584 10.5137C22.5022 11.025 22.5632 11.5236 22.5939 11.6216C22.6434 11.7797 22.6156 11.7946 22.3489 11.7532C22.1834 11.7275 21.7234 11.6814 21.3266 11.6509C19.5621 11.5148 16.9602 10.926 14.9101 10.1987C10.8729 8.76643 6.72657 5.92009 3.90488 2.64388L3.11864 1.73088L2.86371 2.2416C2.51663 2.93701 2.19984 3.84819 2.02075 4.66665C1.83805 5.501 1.81118 7.57738 1.97287 8.36323C2.44827 10.6744 3.69063 12.7191 5.54581 14.2442L5.90652 14.5407L5.32037 14.4823C4.28461 14.3793 3.1245 14.0512 2.23384 13.6098C1.99938 13.4936 1.78377 13.4224 1.75482 13.4517C1.65491 13.553 1.90541 15.3716 2.12517 16.1398C3.01773 19.2599 5.50532 21.8196 8.49474 22.6937L9.23869 22.9113L8.6998 23.0313C8.10717 23.1632 5.69749 23.2041 5.29061 23.0892C5.05462 23.0225 5.0402 23.0328 5.09836 23.2262C5.1329 23.3412 5.29693 23.7357 5.46276 24.1028C6.76048 26.9754 9.56459 29.1561 12.5344 29.6022C12.9064 29.6581 13.3442 29.724 13.5073 29.7486L13.8038 29.7934L13.2819 30.1792C9.94441 32.6454 5.71291 33.9295 1.42027 33.7787C0.639166 33.7513 0 33.7405 0 33.7547C0 33.8085 1.69882 34.8013 2.38966 35.1511C7.45384 37.716 13.2445 38.5707 19.1624 37.6269C21.7396 37.216 24.0329 36.4739 26.4666 35.2634C29.1715 33.918 31.2262 32.429 33.3226 30.2948C35.3111 28.2703 36.8798 26.0972 38.1762 23.5707C40.2073 19.6126 41.2297 15.6667 41.3624 11.2743L41.4179 9.43535L42.0948 8.89933C43.0772 8.12125 44.4894 6.66438 45.2749 5.61865C46.1832 4.40942 46.1697 4.44732 45.6124 4.67331C44.6813 5.05085 43.6772 5.37074 42.6974 5.60184C41.6833 5.84108 40.769 5.99564 40.8496 5.91406C40.8744 5.88903 41.1382 5.68643 41.4358 5.46382C42.5497 4.63084 43.4417 3.58758 44.0961 2.35267C44.4936 1.60254 44.8579 0.704248 44.7458 0.750469C44.7043 0.76755 44.1658 1.03602 43.5491 1.34696C42.3245 1.96455 41.007 2.4569 39.6803 2.79287L38.8267 3.00908L38.433 2.67174C37.3845 1.77336 37.0724 1.54764 36.334 1.15321C34.4157 0.128678 32.2507 -0.228849 30.2202 0.143567Z" fill="url(#paint0_radial_3145_13140)"/>
<defs>
<radialGradient id="paint0_radial_3145_13140" cx="0" cy="0" r="1" gradientUnits="userSpaceOnUse" gradientTransform="translate(23 19) rotate(90) scale(35.5 42.9737)">
<stop stop-color="#4AB3FF"/>
<stop offset="1" stop-color="#4AB3FF" stop-opacity="0"/>
</radialGradient>
</defs>
</svg>
