<svg width="38" height="38" viewBox="0 0 38 38" fill="none" xmlns="http://www.w3.org/2000/svg">
<path fill-rule="evenodd" clip-rule="evenodd" d="M14.1176 0.162956C10.5084 1.15759 7.04639 3.36781 4.67106 6.19379C3.48951 7.59947 2.37295 9.3352 1.77058 10.7026L1.54697 11.2103H5.55338C8.69033 11.2103 9.56606 11.1883 9.5886 11.1088C9.60447 11.053 9.73294 10.4955 9.8741 9.86997C10.729 6.08201 12.2832 2.76083 14.1636 0.703408C14.5172 0.31657 14.7764 0.00219339 14.7397 0.00495536C14.7031 0.00763609 14.4231 0.0787161 14.1176 0.162956ZM23.8278 0.693904C24.5656 1.49187 25.5281 2.92639 26.1146 4.10233C26.938 5.7535 27.7663 8.18468 28.2317 10.3168L28.4179 11.1697L32.4336 11.1908L36.4492 11.2118L36.2293 10.744C35.6118 9.42976 35.0018 8.38354 34.2755 7.39346C31.7414 3.93848 28.313 1.50584 24.242 0.274003C23.744 0.123314 23.3026 0 23.2613 0C23.2199 0 23.4749 0.312265 23.8278 0.693904ZM18.0842 0.953691C17.3982 1.20479 16.9186 1.54467 16.1737 2.30762C14.8111 3.70331 13.7734 5.62759 12.9015 8.37542C12.5991 9.32895 12.1735 10.9352 12.1735 11.1235C12.1735 11.1844 14.2084 11.2103 18.9978 11.2103C23.7872 11.2103 25.8221 11.1844 25.8221 11.1235C25.8221 10.9352 25.3965 9.32895 25.094 8.37542C24.2126 5.59713 23.1819 3.69616 21.7832 2.26871C20.7776 1.24248 20.1026 0.877737 19.1317 0.835982C18.6523 0.815349 18.3777 0.846218 18.0842 0.953691ZM0.438817 14.5938C0.0666557 16.2523 0 16.9233 0 19.0088C0 21.0944 0.0666557 21.7654 0.438817 23.4238L0.614741 24.2078H4.89666H9.17858L9.12954 23.822C8.80396 21.2613 8.80396 16.7564 9.12954 14.1957L9.17858 13.8098H4.89666H0.614741L0.438817 14.5938ZM11.671 14.1145C11.3235 16.3869 11.3235 21.6307 11.671 23.9032L11.7177 24.2078H18.9978H26.2779L26.3245 23.9032C26.6721 21.6307 26.6721 16.3869 26.3245 14.1145L26.2779 13.8098H18.9978H11.7177L11.671 14.1145ZM28.866 14.1957C29.035 15.5241 29.1026 16.9012 29.1026 19.0088C29.1026 21.1165 29.035 22.4935 28.866 23.822L28.817 24.2078H33.0989H37.3808L37.5518 23.4458C37.9191 21.8087 38 21.0083 38 19.0088C38 17.0094 37.9191 16.209 37.5518 14.5718L37.3808 13.8098H33.0989H28.817L28.866 14.1957ZM1.76313 27.2737C3.64591 31.3374 6.68518 34.4948 10.6261 36.4813C11.7758 37.0608 13.7816 37.8216 14.5407 37.966C14.7982 38.015 14.788 37.9975 14.1553 37.3061C12.2348 35.2076 10.6421 31.7239 9.7638 27.7009L9.57765 26.8479L5.56195 26.8269L1.54634 26.8059L1.76313 27.2737ZM12.1735 26.8942C12.1735 27.0825 12.5991 28.6887 12.9015 29.6422C13.783 32.4205 14.8136 34.3215 16.2124 35.7489C16.8171 36.3661 17.1044 36.5923 17.605 36.8456C18.2066 37.1499 18.271 37.1647 18.9978 37.1647C19.7246 37.1647 19.789 37.1499 20.3906 36.8456C20.8911 36.5923 21.1785 36.3661 21.7832 35.7489C23.1819 34.3215 24.2126 32.4205 25.094 29.6422C25.3965 28.6887 25.8221 27.0825 25.8221 26.8942C25.8221 26.8332 23.7872 26.8073 18.9978 26.8073C14.2084 26.8073 12.1735 26.8332 12.1735 26.8942ZM28.4046 26.9089C28.3874 26.9648 28.3133 27.3029 28.2398 27.6603C27.8375 29.6179 26.9414 32.2547 26.1141 33.9153C25.5311 35.0856 24.5911 36.4857 23.8303 37.317C23.1833 38.0241 23.1758 38.0368 23.4449 37.9783C24.3125 37.7898 26.2819 37.0387 27.3967 36.4712C30.8976 34.6892 33.5903 32.099 35.5433 28.6351C35.7952 28.1883 36.102 27.5943 36.225 27.315L36.4486 26.8073H32.4422C29.3065 26.8073 28.4289 26.8294 28.4046 26.9089Z" fill="url(#paint0_radial_3145_13133)"/>
<defs>
<radialGradient id="paint0_radial_3145_13133" cx="0" cy="0" r="1" gradientUnits="userSpaceOnUse" gradientTransform="translate(19 19) rotate(90) scale(35.5)">
<stop stop-color="#FFE24A"/>
<stop offset="1" stop-color="#FFE24A" stop-opacity="0"/>
</radialGradient>
</defs>
</svg>
